<svg width="123" height="30" viewBox="0 0 123 30" fill="none" xmlns="http://www.w3.org/2000/svg">
<rect x="0.5" y="0.5" width="122" height="29" rx="14.5" fill="url(#paint0_linear_29_172)"/>
<rect x="0.5" y="0.5" width="122" height="29" rx="14.5" stroke="#6724F6"/>
<path d="M12.4309 14.368C12.4309 11.184 14.4469 8.608 17.9989 8.608C21.5029 8.608 23.0389 11.088 23.1829 12.96H21.0229C20.8789 11.856 19.9509 10.528 18.0309 10.528C15.8549 10.528 14.6069 12.24 14.6069 14.368C14.6069 16.496 15.8549 18.208 18.0309 18.208C19.9509 18.208 20.8789 16.88 21.0229 15.776H23.1829C23.0389 17.648 21.5029 20.128 17.9989 20.128C14.4469 20.128 12.4309 17.552 12.4309 14.368ZM28.1705 11.424C30.8105 11.424 32.3945 13.376 32.3945 15.776C32.3945 18.176 30.8105 20.128 28.1705 20.128C25.5305 20.128 23.9465 18.176 23.9465 15.776C23.9465 13.376 25.5305 11.424 28.1705 11.424ZM28.1705 18.272C29.5625 18.272 30.3465 17.152 30.3465 15.776C30.3465 14.4 29.5625 13.28 28.1705 13.28C26.7785 13.28 25.9945 14.4 25.9945 15.776C25.9945 17.152 26.7785 18.272 28.1705 18.272ZM42.6753 11.424C44.1473 11.424 45.4593 12.224 45.4593 14.752V20H43.4113V15.072C43.4113 13.792 43.0433 13.28 42.0513 13.28C41.1553 13.28 40.4673 14.24 40.4673 15.744V20H38.4193V15.264C38.4193 13.984 38.2433 13.28 37.2033 13.28C36.2113 13.28 35.4753 14.464 35.4753 16.096V20H33.4273V11.552H35.4753V12.032C35.4753 12.448 35.3633 12.688 35.2033 13.04C35.1393 13.184 35.0913 13.344 35.2513 13.392C35.4113 13.44 35.4753 13.296 35.5073 13.216C35.9393 12.112 36.7233 11.424 37.8433 11.424C38.9473 11.424 39.6513 12.112 39.8753 13.088C39.9073 13.2 39.9873 13.248 40.1153 13.248C40.2113 13.248 40.2913 13.216 40.3393 13.104C40.8193 12.032 41.6673 11.424 42.6753 11.424ZM46.8648 10.528V8.48H48.9128V10.528H46.8648ZM46.8648 20V11.552H48.9128V20H46.8648ZM55.4795 11.424C57.3035 11.424 58.5195 12.608 58.5195 15.008V20H56.4715V15.712C56.4715 13.808 55.9755 13.28 54.9035 13.28C53.7195 13.28 52.6315 14.608 52.6315 16.56V20H50.5835V11.552H52.6315V12.08C52.6315 12.592 52.5355 12.896 52.3755 13.232C52.3115 13.376 52.2155 13.6 52.4235 13.648C52.5515 13.68 52.5995 13.584 52.6635 13.456C53.0475 12.608 54.0075 11.424 55.4795 11.424ZM59.5403 15.584C59.5403 13.312 61.0283 11.424 63.2203 11.424C64.5323 11.424 65.3483 12.08 65.8923 12.96C65.9083 12.992 66.0043 13.2 66.1483 13.136C66.3083 13.072 66.1963 12.864 66.1163 12.704C65.9883 12.464 65.9403 12.24 65.9403 11.936V11.552H67.9883V19.104C67.9883 21.808 66.4043 23.2 63.8123 23.2C61.1562 23.2 59.9403 21.776 59.7963 20.192H61.8123C61.9083 20.96 62.4203 21.536 63.7803 21.536C65.2203 21.536 65.9403 20.736 65.9403 19.184C65.9403 18.896 65.9883 18.672 66.1163 18.432C66.1963 18.272 66.3083 18.112 66.1483 18.032C66.0043 17.968 65.9243 18.112 65.8923 18.176C65.3483 19.104 64.5003 19.744 63.2203 19.744C61.0283 19.744 59.5403 17.856 59.5403 15.584ZM63.7003 17.888C65.0443 17.888 65.9403 16.832 65.9403 15.584C65.9403 14.336 65.0443 13.28 63.7003 13.28C62.2603 13.28 61.5883 14.336 61.5883 15.584C61.5883 16.832 62.2603 17.888 63.7003 17.888ZM78.37 13.104C81.01 13.408 82.85 14.08 82.85 16.64C82.85 18.496 81.25 20.128 78.242 20.128C75.106 20.128 73.634 18.112 73.634 16.032H75.746C75.778 16.896 76.178 18.336 78.242 18.336C80.114 18.336 80.674 17.392 80.674 16.768C80.674 16 80.178 15.44 78.242 15.184C75.042 14.768 74.018 13.728 74.018 11.808C74.018 10.048 75.602 8.608 78.274 8.608C81.202 8.608 82.402 10.368 82.434 12.192H80.37C80.37 11.456 79.874 10.4 78.242 10.4C76.594 10.4 76.178 11.232 76.178 11.712C76.178 12.144 76.386 12.88 78.37 13.104ZM87.8424 11.424C90.4824 11.424 92.0664 13.376 92.0664 15.776C92.0664 18.176 90.4824 20.128 87.8424 20.128C85.2024 20.128 83.6184 18.176 83.6184 15.776C83.6184 13.376 85.2024 11.424 87.8424 11.424ZM87.8424 18.272C89.2344 18.272 90.0184 17.152 90.0184 15.776C90.0184 14.4 89.2344 13.28 87.8424 13.28C86.4504 13.28 85.6664 14.4 85.6664 15.776C85.6664 17.152 86.4504 18.272 87.8424 18.272ZM97.1236 11.424C99.7636 11.424 101.348 13.376 101.348 15.776C101.348 18.176 99.7636 20.128 97.1236 20.128C94.4836 20.128 92.8996 18.176 92.8996 15.776C92.8996 13.376 94.4836 11.424 97.1236 11.424ZM97.1236 18.272C98.5156 18.272 99.2996 17.152 99.2996 15.776C99.2996 14.4 98.5156 13.28 97.1236 13.28C95.7316 13.28 94.9476 14.4 94.9476 15.776C94.9476 17.152 95.7316 18.272 97.1236 18.272ZM107.276 11.424C109.1 11.424 110.316 12.608 110.316 15.008V20H108.268V15.712C108.268 13.808 107.772 13.28 106.7 13.28C105.516 13.28 104.428 14.608 104.428 16.56V20H102.38V11.552H104.428V12.08C104.428 12.592 104.332 12.896 104.172 13.232C104.108 13.376 104.012 13.6 104.22 13.648C104.348 13.68 104.396 13.584 104.46 13.456C104.844 12.608 105.804 11.424 107.276 11.424Z" fill="#B49AFD"/>
<defs>
<linearGradient id="paint0_linear_29_172" x1="61.5" y1="0" x2="61.5" y2="26.2129" gradientUnits="userSpaceOnUse">
<stop stop-color="#090B0F" stop-opacity="0"/>
<stop offset="1" stop-color="#6724F6"/>
</linearGradient>
</defs>
</svg>
