<svg width="2953" height="796" viewBox="0 0 2953 796" fill="none" xmlns="http://www.w3.org/2000/svg">
<path d="M0.499885 796L1414.03 314L1544.95 314L2953 796L2343.99 796L615 796L0.499885 796Z" fill="url(#paint0_radial_45_63)"/>
<path d="M0.499885 796L1414.03 314L1544.95 314L2953 796L2343.99 796L615 796L0.499885 796Z" fill="url(#paint1_linear_45_63)"/>
<g filter="url(#filter0_d_45_63)">
<g clip-path="url(#clip0_45_63)">
<path d="M1417 171.7C1417 164.686 1422.69 159 1429.7 159H1531.3C1538.31 159 1544 164.686 1544 171.7V314H1417V171.7Z" fill="#090B0F"/>
<path d="M1417 176.971C1417 167.046 1425.05 159 1434.97 159H1578.74C1588.66 159 1596.71 167.046 1596.71 176.971V378.328H1417V176.971Z" fill="url(#paint2_linear_45_63)"/>
<g opacity="0.6" filter="url(#filter1_f_45_63)">
<path d="M1479.55 306.969C1428.98 306.969 1387.98 318.301 1387.98 332.307C1387.98 346.313 1428.98 357.645 1479.55 357.645C1530.12 357.645 1571.13 346.313 1571.13 332.307C1571.08 318.301 1530.12 306.969 1479.55 306.969Z" fill="url(#paint3_radial_45_63)"/>
<path d="M1479.55 303.906C1413.36 303.906 1359.72 317.62 1359.72 334.496C1359.72 351.42 1413.36 365.086 1479.55 365.086C1545.74 365.086 1599.39 351.371 1599.39 334.496C1599.34 317.62 1545.7 303.906 1479.55 303.906Z" fill="url(#paint4_radial_45_63)"/>
<g filter="url(#filter2_f_45_63)">
<path d="M1479.56 296.465C1389.84 296.465 1317.1 316.599 1317.1 341.402C1317.1 366.205 1389.84 386.339 1479.56 386.339C1569.27 386.339 1642.01 366.205 1642.01 341.402C1641.96 316.55 1569.27 296.465 1479.56 296.465Z" fill="url(#paint5_radial_45_63)"/>
</g>
<path d="M1480.63 297.292C1511.87 297.292 1537.2 301.766 1537.2 307.261C1537.2 312.757 1511.87 317.231 1480.63 317.231C1449.39 317.231 1424.05 312.757 1424.05 307.261C1424.05 301.766 1449.39 297.292 1480.63 297.292Z" fill="url(#paint6_radial_45_63)"/>
<path opacity="0.5" d="M1479.56 222.883C1389.84 239.273 1317.1 272.683 1317.1 297.535C1317.1 322.338 1389.84 329.195 1479.56 312.757C1569.27 296.368 1642.01 262.957 1642.01 238.105C1641.96 213.303 1569.27 206.494 1479.56 222.883Z" fill="url(#paint7_radial_45_63)"/>
<g opacity="0.5" filter="url(#filter3_f_45_63)">
<path d="M1486.53 223.418C1395.35 225.753 1318.32 247.54 1314.47 272.051C1310.61 296.562 1381.39 314.556 1472.57 312.173C1563.76 309.839 1640.78 288.051 1644.64 263.54C1648.5 239.029 1577.72 221.084 1486.53 223.418Z" fill="url(#paint8_radial_45_63)"/>
</g>
<path opacity="0.5" d="M1464.48 201.777C1554.54 187.381 1634.3 194.725 1642.6 218.117C1650.9 241.51 1584.66 272.148 1494.6 286.495C1404.54 300.89 1324.78 293.547 1316.48 270.154C1308.13 246.762 1374.42 216.172 1464.48 201.777Z" fill="url(#paint9_radial_45_63)"/>
<path opacity="0.5" d="M1492.57 161.441C1403.04 175.845 1324.63 208.611 1317.44 234.621C1310.26 260.631 1376.97 270.085 1466.49 255.681C1556.01 241.277 1634.43 208.511 1641.61 182.501C1648.84 156.44 1582.09 147.037 1492.57 161.441Z" fill="url(#paint10_radial_45_63)"/>
<path opacity="0.5" d="M1500.11 165.01C1409.56 170.165 1328.19 194.725 1318.37 219.868C1308.51 245.011 1373.92 261.255 1464.47 256.1C1555.02 250.944 1636.39 226.385 1646.2 201.242C1656.06 176.05 1590.65 159.855 1500.11 165.01Z" fill="url(#paint11_radial_45_63)"/>
<path opacity="0.5" d="M1500.11 270.252C1409.56 275.407 1328.19 299.966 1318.37 325.109C1308.51 350.301 1373.92 366.496 1464.47 361.341C1554.97 356.186 1636.34 331.626 1646.2 306.483C1656.06 281.34 1590.65 265.096 1500.11 270.252Z" fill="url(#paint12_radial_45_63)"/>
<path opacity="0.5" d="M1464.47 116.134C1555.02 106.894 1636.39 118.517 1646.2 142.104C1656.06 165.691 1590.65 192.293 1500.1 201.533C1409.56 210.774 1328.18 199.15 1318.37 175.563C1308.51 151.976 1373.92 125.374 1464.47 116.134Z" fill="url(#paint13_radial_45_63)"/>
<path d="M1475.94 243.99C1527.34 238.981 1569.37 238.737 1569.81 243.455C1570.25 248.172 1529 256.051 1477.6 261.011C1426.2 266.02 1384.17 266.264 1383.73 261.546C1383.25 256.829 1424.54 248.95 1475.94 243.99Z" fill="url(#paint14_radial_45_63)"/>
</g>
<mask id="path-18-inside-1_45_63" fill="white">
<path d="M1417 171.7C1417 164.686 1422.69 159 1429.7 159H1531.3C1538.31 159 1544 164.686 1544 171.7V314H1417V171.7Z"/>
</mask>
<path d="M1413.83 171.7C1413.83 162.932 1420.93 155.825 1429.7 155.825H1531.3C1540.07 155.825 1547.18 162.932 1547.18 171.7H1540.83C1540.83 166.439 1536.56 162.175 1531.3 162.175H1429.7C1424.44 162.175 1420.17 166.439 1420.17 171.7H1413.83ZM1544 314H1417H1544ZM1413.83 314V171.7C1413.83 162.932 1420.93 155.825 1429.7 155.825V162.175C1424.44 162.175 1420.17 166.439 1420.17 171.7V314H1413.83ZM1531.3 155.825C1540.07 155.825 1547.18 162.932 1547.18 171.7V314H1540.83V171.7C1540.83 166.439 1536.56 162.175 1531.3 162.175V155.825Z" fill="url(#paint15_linear_45_63)" mask="url(#path-18-inside-1_45_63)"/>
</g>
</g>
<defs>
<filter id="filter0_d_45_63" x="1258.25" y="0.250229" width="444.5" height="472.5" filterUnits="userSpaceOnUse" color-interpolation-filters="sRGB">
<feFlood flood-opacity="0" result="BackgroundImageFix"/>
<feColorMatrix in="SourceAlpha" type="matrix" values="0 0 0 0 0 0 0 0 0 0 0 0 0 0 0 0 0 0 127 0" result="hardAlpha"/>
<feOffset/>
<feGaussianBlur stdDeviation="79.3749"/>
<feComposite in2="hardAlpha" operator="out"/>
<feColorMatrix type="matrix" values="0 0 0 0 0.772549 0 0 0 0 1 0 0 0 0 0.407843 0 0 0 1 0"/>
<feBlend mode="normal" in2="BackgroundImageFix" result="effect1_dropShadow_45_63"/>
<feBlend mode="normal" in="SourceGraphic" in2="effect1_dropShadow_45_63" result="shape"/>
</filter>
<filter id="filter1_f_45_63" x="1309.56" y="108.198" width="342.395" height="284.497" filterUnits="userSpaceOnUse" color-interpolation-filters="sRGB">
<feFlood flood-opacity="0" result="BackgroundImageFix"/>
<feBlend mode="normal" in="SourceGraphic" in2="BackgroundImageFix" result="shape"/>
<feGaussianBlur stdDeviation="2.38125" result="effect1_foregroundBlur_45_63"/>
</filter>
<filter id="filter2_f_45_63" x="1315.85" y="295.208" width="327.415" height="92.3867" filterUnits="userSpaceOnUse" color-interpolation-filters="sRGB">
<feFlood flood-opacity="0" result="BackgroundImageFix"/>
<feBlend mode="normal" in="SourceGraphic" in2="BackgroundImageFix" result="shape"/>
<feGaussianBlur stdDeviation="0.628294" result="effect1_foregroundBlur_45_63"/>
</filter>
<filter id="filter3_f_45_63" x="1313.06" y="221.957" width="332.987" height="91.6843" filterUnits="userSpaceOnUse" color-interpolation-filters="sRGB">
<feFlood flood-opacity="0" result="BackgroundImageFix"/>
<feBlend mode="normal" in="SourceGraphic" in2="BackgroundImageFix" result="shape"/>
<feGaussianBlur stdDeviation="0.628294" result="effect1_foregroundBlur_45_63"/>
</filter>
<radialGradient id="paint0_radial_45_63" cx="0" cy="0" r="1" gradientUnits="userSpaceOnUse" gradientTransform="translate(1476.75 579.011) rotate(90) scale(405.52 1558.54)">
<stop stop-color="#6724F6"/>
<stop offset="1" stop-color="#B49AFD" stop-opacity="0"/>
</radialGradient>
<linearGradient id="paint1_linear_45_63" x1="1479.5" y1="343.226" x2="1479.5" y2="694.62" gradientUnits="userSpaceOnUse">
<stop stop-color="#C5FF68"/>
<stop offset="1" stop-color="#6724F6" stop-opacity="0"/>
</linearGradient>
<linearGradient id="paint2_linear_45_63" x1="1506.85" y1="182.403" x2="1506.85" y2="378.328" gradientUnits="userSpaceOnUse">
<stop stop-color="#6724F6" stop-opacity="0"/>
<stop offset="1" stop-color="#C5FF68"/>
</linearGradient>
<radialGradient id="paint3_radial_45_63" cx="0" cy="0" r="1" gradientUnits="userSpaceOnUse" gradientTransform="translate(1479.55 332.308) scale(49.1701 13.6115)">
<stop offset="0.6898" stop-color="#C5FF68" stop-opacity="0"/>
<stop offset="0.915" stop-color="#C5FF68" stop-opacity="0.8"/>
<stop offset="0.9411" stop-color="#C5FF68"/>
<stop offset="0.9661" stop-color="#C5FF68"/>
<stop offset="1" stop-color="#C5FF68" stop-opacity="0"/>
</radialGradient>
<radialGradient id="paint4_radial_45_63" cx="0" cy="0" r="1" gradientUnits="userSpaceOnUse" gradientTransform="translate(1479.54 334.504) scale(64.3658 16.4419)">
<stop offset="0.6898" stop-color="#C5FF68" stop-opacity="0"/>
<stop offset="0.915" stop-color="#C5FF68" stop-opacity="0.702"/>
<stop offset="0.9411" stop-color="#C5FF68"/>
<stop offset="0.9661" stop-color="#C5FF68"/>
<stop offset="1" stop-color="#C5FF68" stop-opacity="0"/>
</radialGradient>
<radialGradient id="paint5_radial_45_63" cx="0" cy="0" r="1" gradientUnits="userSpaceOnUse" gradientTransform="translate(1479.55 341.379) scale(87.2517 24.1434)">
<stop offset="0.6898" stop-color="#C5FF68" stop-opacity="0"/>
<stop offset="0.915" stop-color="#C5FF68" stop-opacity="0.702"/>
<stop offset="0.9411" stop-color="#C5FF68"/>
<stop offset="0.9661" stop-color="#C5FF68"/>
<stop offset="1" stop-color="#C5FF68" stop-opacity="0"/>
</radialGradient>
<radialGradient id="paint6_radial_45_63" cx="0" cy="0" r="1" gradientUnits="userSpaceOnUse" gradientTransform="translate(1480.61 307.288) scale(30.3915 5.36178)">
<stop stop-color="white"/>
<stop offset="0.2852" stop-color="#C5FF68"/>
<stop offset="1" stop-color="#C5FF68" stop-opacity="0"/>
</radialGradient>
<radialGradient id="paint7_radial_45_63" cx="0" cy="0" r="1" gradientUnits="userSpaceOnUse" gradientTransform="translate(1479.54 267.837) rotate(-3.82494) scale(86.9411 27.6562)">
<stop offset="0.6898" stop-color="#C5FF68" stop-opacity="0"/>
<stop offset="0.915" stop-color="#C5FF68" stop-opacity="0.702"/>
<stop offset="0.9411" stop-color="#C5FF68"/>
<stop offset="0.9661" stop-color="#C5FF68"/>
<stop offset="1" stop-color="#C5FF68" stop-opacity="0"/>
</radialGradient>
<radialGradient id="paint8_radial_45_63" cx="0" cy="0" r="1" gradientUnits="userSpaceOnUse" gradientTransform="translate(1479.54 267.805) rotate(-3.11355) scale(88.3657 22.9044)">
<stop offset="0.6898" stop-color="#C5FF68" stop-opacity="0"/>
<stop offset="0.915" stop-color="#C5FF68" stop-opacity="0.702"/>
<stop offset="0.9411" stop-color="#C5FF68"/>
<stop offset="0.9661" stop-color="#C5FF68"/>
<stop offset="1" stop-color="#C5FF68" stop-opacity="0"/>
</radialGradient>
<radialGradient id="paint9_radial_45_63" cx="0" cy="0" r="1" gradientUnits="userSpaceOnUse" gradientTransform="translate(1479.55 244.142) rotate(-176.497) scale(87.6137 25.5371)">
<stop offset="0.6898" stop-color="#C5FF68" stop-opacity="0"/>
<stop offset="0.915" stop-color="#C5FF68" stop-opacity="0.702"/>
<stop offset="0.9411" stop-color="#C5FF68"/>
<stop offset="0.9661" stop-color="#C5FF68"/>
<stop offset="1" stop-color="#C5FF68" stop-opacity="0"/>
</radialGradient>
<radialGradient id="paint10_radial_45_63" cx="0" cy="0" r="1" gradientUnits="userSpaceOnUse" gradientTransform="translate(1479.52 208.564) rotate(-5.99992) scale(87.6152 25.8299)">
<stop offset="0.6898" stop-color="#C5FF68" stop-opacity="0"/>
<stop offset="0.915" stop-color="#C5FF68" stop-opacity="0.702"/>
<stop offset="0.9411" stop-color="#C5FF68"/>
<stop offset="0.9661" stop-color="#C5FF68"/>
<stop offset="1" stop-color="#C5FF68" stop-opacity="0"/>
</radialGradient>
<radialGradient id="paint11_radial_45_63" cx="0" cy="0" r="1" gradientUnits="userSpaceOnUse" gradientTransform="translate(1482.28 210.559) rotate(-3.25363) scale(88.1967 23.8848)">
<stop offset="0.6898" stop-color="#C5FF68" stop-opacity="0"/>
<stop offset="0.915" stop-color="#C5FF68" stop-opacity="0.702"/>
<stop offset="0.9411" stop-color="#C5FF68"/>
<stop offset="0.9661" stop-color="#C5FF68"/>
<stop offset="1" stop-color="#C5FF68" stop-opacity="0"/>
</radialGradient>
<radialGradient id="paint12_radial_45_63" cx="0" cy="0" r="1" gradientUnits="userSpaceOnUse" gradientTransform="translate(1482.28 315.803) rotate(-3.25363) scale(88.1967 23.8848)">
<stop offset="0.6898" stop-color="#C5FF68" stop-opacity="0"/>
<stop offset="0.915" stop-color="#C5FF68" stop-opacity="0.702"/>
<stop offset="0.9411" stop-color="#C5FF68"/>
<stop offset="0.9661" stop-color="#C5FF68"/>
<stop offset="1" stop-color="#C5FF68" stop-opacity="0"/>
</radialGradient>
<radialGradient id="paint13_radial_45_63" cx="0" cy="0" r="1" gradientUnits="userSpaceOnUse" gradientTransform="translate(1482.3 158.839) rotate(-176.79) scale(88.1929 23.5637)">
<stop offset="0.6898" stop-color="#C5FF68" stop-opacity="0"/>
<stop offset="0.915" stop-color="#C5FF68" stop-opacity="0.702"/>
<stop offset="0.9411" stop-color="#C5FF68"/>
<stop offset="0.9661" stop-color="#C5FF68"/>
<stop offset="1" stop-color="#C5FF68" stop-opacity="0"/>
</radialGradient>
<radialGradient id="paint14_radial_45_63" cx="0" cy="0" r="1" gradientUnits="userSpaceOnUse" gradientTransform="translate(1476.78 252.494) rotate(-5.55441) scale(50.2423 4.60192)">
<stop stop-color="white"/>
<stop offset="0.2852" stop-color="#C5FF68"/>
<stop offset="1" stop-color="#C5FF68" stop-opacity="0"/>
</radialGradient>
<linearGradient id="paint15_linear_45_63" x1="1480.5" y1="159" x2="1480.5" y2="314" gradientUnits="userSpaceOnUse">
<stop stop-color="#C5FF68"/>
<stop offset="1" stop-color="#6724F6"/>
</linearGradient>
<clipPath id="clip0_45_63">
<path d="M1417 171.7C1417 164.686 1422.69 159 1429.7 159H1531.3C1538.31 159 1544 164.686 1544 171.7V314H1417V171.7Z" fill="white"/>
</clipPath>
</defs>
</svg>
