<svg width="128" height="48" viewBox="0 0 128 48" fill="none" xmlns="http://www.w3.org/2000/svg">
<path fill-rule="evenodd" clip-rule="evenodd" d="M16.5259 0C12.7582 0 9.49229 2.60794 8.65863 6.28222L1.42863 38.1478C0.28342 43.1952 4.12019 48 9.29589 48H118.57C123.745 48 127.582 43.1952 126.437 38.1478L119.207 6.28222C118.373 2.60793 115.107 0 111.34 0H16.5259ZM54.6055 26.6581V5.50525H62.4078V34.9193C62.4078 35.9141 62.2119 36.8992 61.8313 37.8182C61.4506 38.7373 60.8926 39.5723 60.1892 40.2757C59.4857 40.9791 58.6506 41.537 57.7315 41.9176C56.8124 42.2982 55.8274 42.4941 54.8326 42.4939H51.199C49.1901 42.4939 47.2635 41.6959 45.843 40.2754C44.4225 38.8549 43.6245 36.9282 43.6245 34.9193V5.50525H51.4267V26.6581C51.4267 26.8727 51.512 27.0785 51.6637 27.2303C51.8155 27.382 52.0213 27.4673 52.2359 27.4673H53.7963C54.0109 27.4673 54.2167 27.382 54.3685 27.2303C54.5202 27.0785 54.6055 26.8727 54.6055 26.6581ZM29.8118 23.9996H28.9067C28.7213 23.9997 28.5414 23.936 28.3973 23.8194C28.2531 23.7027 28.1535 23.54 28.1149 23.3586L24.8067 7.79392C24.669 7.14635 24.3131 6.5657 23.7986 6.14909C23.2841 5.73249 22.6421 5.50521 21.98 5.50525H17.0559C16.3938 5.50521 15.7518 5.73249 15.2373 6.14909C14.7227 6.5657 14.3669 7.14635 14.2291 7.79392L7.2984 40.3994C7.24467 40.6521 7.24807 40.9136 7.30838 41.1648C7.36868 41.416 7.48435 41.6505 7.64693 41.8513C7.80952 42.052 8.01491 42.2139 8.24809 42.3251C8.48127 42.4363 8.73634 42.494 8.99468 42.4939H15.9618C16.2267 42.494 16.4836 42.4031 16.6895 42.2365C16.8954 42.0698 17.0378 41.8375 17.0929 41.5784L19.8977 28.3827C19.9527 28.1237 20.0951 27.8915 20.3008 27.7249C20.5066 27.5582 20.7633 27.4673 21.0281 27.4673H22.4846C22.7494 27.4672 23.0063 27.558 23.2122 27.7247C23.4181 27.8913 23.5605 28.1236 23.6156 28.3827L25.5442 37.4565C25.8467 38.8816 26.6294 40.1595 27.7615 41.0765C28.8935 41.9935 30.3061 42.4939 31.7629 42.4939H34.0886C35.7747 42.4939 37.3917 41.8241 38.584 40.6319C39.7762 39.4396 40.446 37.8226 40.446 36.1365V5.50525H30.6209V23.1905C30.6209 23.405 30.5357 23.6108 30.3839 23.7626C30.2322 23.9143 30.0264 23.9996 29.8118 23.9996ZM112.606 6.14928C113.121 6.56587 113.477 7.14645 113.614 7.79392L120.546 40.3994C120.599 40.6522 120.596 40.9137 120.536 41.1649C120.475 41.4162 120.359 41.6507 120.197 41.8515C120.034 42.0523 119.829 42.2141 119.595 42.3253C119.362 42.4364 119.107 42.494 118.849 42.4939H111.882C111.617 42.4939 111.36 42.4029 111.154 42.2363C110.948 42.0697 110.806 41.8374 110.751 41.5784L107.946 28.3827C107.891 28.1236 107.749 27.8913 107.543 27.7247C107.337 27.558 107.08 27.4672 106.815 27.4673H105.48C105.215 27.4672 104.958 27.558 104.753 27.7247C104.547 27.8913 104.404 28.1236 104.349 28.3827L101.544 41.5784C101.489 41.8374 101.347 42.0697 101.141 42.2363C100.935 42.4029 100.679 42.4939 100.414 42.4939H96.7382V5.50525H110.788C111.45 5.50534 112.092 5.73269 112.606 6.14928ZM75.8193 34.3458H75.8309L75.8193 34.3204V34.3458ZM88.2023 5.50525H93.5593L93.5616 42.4939H84.8924C84.5858 42.4939 84.2918 42.3721 84.0751 42.1554C83.8583 41.9386 83.7365 41.6446 83.7365 41.338V33.6646C83.7366 33.5027 83.7706 33.3426 83.8365 33.1947L86.2061 27.8718C86.2252 27.828 86.2332 27.78 86.2292 27.7323C86.2252 27.6846 86.2095 27.6386 86.1834 27.5985C86.1572 27.5584 86.1215 27.5254 86.0795 27.5025C86.0375 27.4796 85.9904 27.4675 85.9425 27.4673H85.0548C84.943 27.4672 84.8337 27.4995 84.7399 27.5604C84.6462 27.6212 84.5721 27.7079 84.5266 27.81L82.2275 32.9734C82.0455 33.382 81.749 33.7291 81.3737 33.9725C80.9985 34.2159 80.5607 34.3453 80.1134 34.3448H79.0401C78.5932 34.3448 78.1559 34.2153 77.7811 33.9719C77.4063 33.7285 77.1101 33.3816 76.9283 32.9734L74.6292 27.81C74.5838 27.708 74.5097 27.6213 74.4161 27.5605C74.3225 27.4997 74.2132 27.4673 74.1015 27.4673H73.2132C73.1654 27.4675 73.1183 27.4796 73.0763 27.5025C73.0342 27.5254 72.9985 27.5584 72.9724 27.5985C72.9463 27.6386 72.9305 27.6846 72.9266 27.7323C72.9226 27.78 72.9305 27.828 72.9497 27.8718L75.3147 33.1814C75.3805 33.3293 75.4146 33.4894 75.4146 33.6513V41.338C75.4146 41.6446 75.2929 41.9386 75.0761 42.1554C74.8593 42.3721 74.5653 42.4939 74.2587 42.4939H65.5895V5.50525H70.9575C72.2814 5.50558 73.565 5.96042 74.5938 6.79371C75.6225 7.627 76.334 8.78821 76.6093 10.0832L78.5465 19.1974C78.5851 19.3787 78.6847 19.5413 78.8287 19.6579C78.9727 19.7746 79.1524 19.8383 79.3377 19.8384H79.8203C80.0053 19.8378 80.1844 19.7738 80.328 19.6572C80.4715 19.5406 80.5708 19.3783 80.6092 19.1974L82.5488 10.0832C82.8241 8.78792 83.5359 7.62648 84.565 6.79316C85.5941 5.95984 86.8781 5.50519 88.2023 5.50525Z" fill="#C5FF68"/>
</svg>
