<svg width="22" height="22" viewBox="0 0 22 22" fill="none" xmlns="http://www.w3.org/2000/svg">
<g clip-path="url(#clip0_39_25)">
<g clip-path="url(#clip1_39_25)">
<path d="M11 21.45C16.7714 21.45 21.4501 16.7714 21.4501 11C21.4501 5.22862 16.7714 0.549999 11 0.549999C5.22867 0.549999 0.550049 5.22862 0.550049 11C0.550049 16.7714 5.22867 21.45 11 21.45Z" fill="#A3A9BB"/>
<path fill-rule="evenodd" clip-rule="evenodd" d="M5.28065 10.8897C8.32704 9.56245 10.3584 8.68744 11.3749 8.26467C14.2769 7.0576 14.88 6.84792 15.273 6.84099C15.3595 6.83947 15.5527 6.86089 15.6779 6.96249C15.7837 7.04827 15.8128 7.16415 15.8267 7.24549C15.8406 7.32682 15.8579 7.5121 15.8441 7.65687C15.6869 9.30926 15.0064 13.3192 14.6602 15.1699C14.5137 15.953 14.2253 16.2156 13.946 16.2413C13.3392 16.2971 12.8784 15.8402 12.2906 15.4549C11.3709 14.852 10.8513 14.4767 9.95853 13.8884C8.92678 13.2085 9.59562 12.8348 10.1836 12.2241C10.3375 12.0643 13.0113 9.63225 13.063 9.41163C13.0695 9.38403 13.0755 9.28118 13.0144 9.22687C12.9533 9.17256 12.8631 9.19113 12.798 9.20591C12.7058 9.22684 11.2365 10.198 8.39018 12.1193C7.97313 12.4057 7.59537 12.5453 7.25692 12.5379C6.8838 12.5299 6.16607 12.327 5.63251 12.1535C4.97808 11.9408 4.45795 11.8283 4.50324 11.4671C4.52683 11.2789 4.78597 11.0864 5.28065 10.8897Z" fill="#090B0F"/>
</g>
</g>
<defs>
<clipPath id="clip0_39_25">
<rect width="22" height="22" fill="white"/>
</clipPath>
<clipPath id="clip1_39_25">
<rect width="20.9" height="20.9" fill="white" transform="translate(0.550049 0.549999)"/>
</clipPath>
</defs>
</svg>
