<svg width="22" height="22" viewBox="0 0 22 22" fill="none" xmlns="http://www.w3.org/2000/svg">
<path d="M9.57024 12.8634L5.0638 18.0126H4.35613L9.42961 12.2139L9.81729 11.7708L9.45964 11.3031L3.88949 4.01944H7.47771L10.9916 8.66514L11.5249 9.37015L12.1069 8.70484L16.2058 4.01944H16.9118L12.2364 9.36312L11.8508 9.80384L12.204 10.2709L18.0599 18.0126H14.5934L10.6831 12.9001L10.1491 12.2019L9.57024 12.8634ZM14.389 17.6022L14.605 17.8846H14.9605H16.4111H17.8573L16.9849 16.7311L7.62119 4.35066L7.40529 4.0652H7.04738H5.49072H4.03465L4.91928 5.22174L14.389 17.6022Z" fill="#C4FF67" stroke="#C4FF67" stroke-width="1.43889"/>
</svg>
